<?xml version="1.0" encoding="UTF-8"?>
<svg version="1.1" xmlns="http://www.w3.org/2000/svg" width="512" height="512">
<path d="M0 0 C168.96 0 337.92 0 512 0 C512 168.96 512 337.92 512 512 C343.04 512 174.08 512 0 512 C0 343.04 0 174.08 0 0 Z " fill="#0866FF" transform="translate(0,0)"/>
<path d="M0 0 C0.78055756 0.00171204 1.56111511 0.00342407 2.36532593 0.00518799 C21.82790404 0.07750392 41.52908611 1.71039653 60.4375 6.4375 C60.4375 29.8675 60.4375 53.2975 60.4375 77.4375 C39.875 77.25 39.875 77.25 33.48608398 77.16723633 C16.75270885 77.0393816 -0.4687945 77.97188097 -13.8515625 89.390625 C-31.17679924 108.11662557 -26.98809326 139.03563727 -27.5625 161.4375 C-0.1725 161.4375 27.2175 161.4375 55.4375 161.4375 C53.1433057 180.93815158 53.1433057 180.93815158 51.34375 189.88671875 C51.15155884 190.87267532 50.95936768 191.8586319 50.76135254 192.87446594 C50.15935537 195.95918196 49.54914849 199.04218455 48.9375 202.125 C48.32687083 205.21870871 47.7182245 208.31277171 47.11364746 211.40766907 C46.74115679 213.3130143 46.36526432 215.21769964 45.98498535 217.12150574 C44.52749462 224.55292422 43.51333138 231.90668032 42.4375 239.4375 C19.3375 239.4375 -3.7625 239.4375 -27.5625 239.4375 C-27.5625 298.1775 -27.5625 356.9175 -27.5625 417.4375 C-58.2525 417.4375 -88.9425 417.4375 -120.5625 417.4375 C-120.5625 358.6975 -120.5625 299.9575 -120.5625 239.4375 C-138.0525 239.4375 -155.5425 239.4375 -173.5625 239.4375 C-173.5625 213.6975 -173.5625 187.9575 -173.5625 161.4375 C-156.0725 161.4375 -138.5825 161.4375 -120.5625 161.4375 C-120.68000463 146.0633056 -120.68000463 146.0633056 -120.83276367 130.68945312 C-121.07765196 93.69152069 -114.93483844 57.09825873 -88.875 29.25 C-65.64988215 6.8850717 -31.23483035 -0.24566297 0 0 Z " fill="#FEFEFF" transform="translate(314.5625,94.5625)"/>
</svg>
