<?xml version="1.0" encoding="UTF-8"?>
<svg version="1.1" xmlns="http://www.w3.org/2000/svg" width="512" height="512">
<path d="M0 0 C168.96 0 337.92 0 512 0 C512 168.96 512 337.92 512 512 C343.04 512 174.08 512 0 512 C0 343.04 0 174.08 0 0 Z " fill="#FE009B" transform="translate(0,0)"/>
<path d="M0 0 C168.96 0 337.92 0 512 0 C512 168.96 512 337.92 512 512 C343.04 512 174.08 512 0 512 C0 343.04 0 174.08 0 0 Z M170.18017578 66.87768555 C169.11021803 66.95369145 168.04026028 67.02969736 166.93787956 67.10800648 C137.51389252 69.4905181 110.67760993 81.61187851 91 104 C65.15333909 136.4524113 65.83976835 175.5302234 65.83274293 215.01284623 C65.83202233 217.29781403 65.82986953 219.58277617 65.82724571 221.86774254 C65.81805448 229.89010361 65.81390322 237.91244829 65.81469727 245.93481445 C65.81529741 253.33235447 65.80474164 260.72982144 65.7889536 268.127343 C65.77575145 274.54932321 65.77051856 280.9712799 65.77115268 287.39327353 C65.77140383 291.19771812 65.76876972 295.00209743 65.75797462 298.80652809 C65.64523758 341.52522408 67.39480802 383.30439882 98.3125 415.75 C129.94043147 446.22782487 172.32866585 446.15996694 213.57433891 446.16725707 C215.86599334 446.16797573 218.15764206 446.17012518 220.44929504 446.17275429 C228.49224213 446.18196349 236.53517282 446.18609494 244.578125 446.18530273 C251.99714709 446.18470378 259.41609606 446.19523136 266.8350997 446.2110464 C273.26890439 446.2242574 279.7026856 446.229481 286.1365037 446.22884732 C289.95054113 446.22859619 293.76451345 446.23122798 297.57853699 446.24202538 C357.91768962 446.57140237 357.91768962 446.57140237 410 419 C410.97710937 418.11570312 411.95421875 417.23140625 412.9609375 416.3203125 C438.28065467 392.63231933 444.57785247 359.44068029 445.79266357 326.1986084 C446.17458039 314.23539325 446.14572855 302.26820165 446.1343255 290.30014515 C446.1317318 286.7052841 446.13415818 283.11042515 446.13571167 279.51556396 C446.13751253 273.49165376 446.13518164 267.46775596 446.13037109 261.44384766 C446.12492259 254.54264944 446.12670392 247.64148076 446.1321975 240.74028325 C446.1367769 234.74034733 446.13735615 228.74042015 446.13475883 222.74048305 C446.13322357 219.18940292 446.13292473 215.63833655 446.13629532 212.08725739 C446.14660187 199.4291943 446.14781534 186.77921083 445.57373047 174.13183594 C445.51957568 172.90844702 445.51957568 172.90844702 445.46432686 171.66034317 C445.05699632 163.94316666 443.7361187 156.53365535 442 149 C441.74605469 147.79472656 441.49210937 146.58945313 441.23046875 145.34765625 C435.3065619 120.00199088 420.19079238 98.44225943 398.44140625 84.0625 C379.4871889 72.40840135 357.90122561 67.4394141 335.85595703 66.43237305 C334.52373454 66.37100552 334.52373454 66.37100552 333.16459846 66.30839825 C320.34741367 65.78207523 307.51746358 65.83508534 294.69173574 65.83274293 C292.46302776 65.83202182 290.23432557 65.82986805 288.00561905 65.82724571 C280.1743151 65.81805389 272.34302792 65.81390307 264.51171875 65.81469727 C257.30168984 65.81529661 250.09173608 65.80475686 242.88172615 65.7889536 C236.61511169 65.77572543 230.34852134 65.77051965 224.08189309 65.77115268 C220.37292635 65.7714032 216.66402666 65.76880689 212.95507431 65.75797462 C198.67145159 65.71926883 184.43476589 65.85374875 170.18017578 66.87768555 Z " fill="#EA2F7A" transform="translate(0,0)"/>
<path d="M0 0 C3.75767104 0.00900737 7.51534062 0.00701883 11.27302027 0.00663924 C17.56746533 0.00756573 23.86186118 0.01611245 30.15629053 0.0299089 C37.36995337 0.04566457 44.58356275 0.05090491 51.79724157 0.05017334 C59.58073325 0.0494914 67.36420516 0.05646175 75.14769077 0.06561995 C77.34795476 0.06772202 79.54821543 0.06845702 81.74848032 0.06885886 C165.16086783 0.09866109 165.16086783 0.09866109 195.88578272 28.23571944 C196.73785303 29.00657882 197.58992334 29.77743819 198.46781397 30.57165694 C223.54066438 54.37353337 229.93591809 87.04011176 230.88578272 120.23571944 C231.04585663 129.62235443 231.02901879 139.01055941 231.02010822 148.39827228 C231.01752332 151.99128512 231.019939 155.58429581 231.02149439 159.1773088 C231.02329954 165.20833975 231.02095471 171.23935835 231.01615381 177.27038741 C231.01072437 184.16915046 231.01247103 191.06788387 231.01798022 197.96664619 C231.02257103 203.963167 231.0231329 209.95967907 231.02054155 215.95620108 C231.01900982 219.50523255 231.01869656 223.05425028 231.02207804 226.60328078 C231.0331088 240.08320618 230.96858595 253.54859345 230.44779444 267.01989913 C230.4101202 268.00818332 230.37244596 268.9964675 230.33363008 270.0146997 C229.16651065 296.70981017 222.28810336 324.03805045 203.88578272 344.23571944 C203.00148584 345.21282882 202.11718897 346.18993819 201.20609522 347.19665694 C184.76259817 364.77897726 162.22534781 374.43798376 138.63578272 377.92321944 C137.42305689 378.10256026 137.42305689 378.10256026 136.18583155 378.28552413 C118.00776858 380.73219602 99.64383049 380.39973869 81.34437537 380.40297651 C79.05472326 380.40369524 76.76507687 380.40584485 74.4754262 380.40847373 C66.43781015 380.41768366 58.40021051 380.42181436 50.36258936 380.42102218 C42.95153963 380.42042347 35.54056316 380.43094584 28.12953192 380.44676584 C21.70080709 380.45998413 15.27210577 380.46520014 8.84336752 380.46456677 C5.03321056 380.46431581 1.22311881 380.46693737 -2.58702421 380.47774482 C-16.90960929 380.51543568 -31.18945941 380.4287031 -45.48164892 379.3580339 C-46.50189122 379.28202799 -47.52213352 379.20602208 -48.57329226 379.12771297 C-64.71765809 377.75459804 -79.67437895 373.51883265 -94.11421728 366.23571944 C-95.16867041 365.71364913 -96.22312353 365.19157882 -97.30952978 364.65368819 C-105.76855218 360.11496991 -112.38768168 353.97785668 -119.11421728 347.23571944 C-119.95210791 346.40943038 -120.78999853 345.58314132 -121.65327978 344.73181319 C-134.99499284 330.81700249 -143.1072435 311.08795221 -146.11421728 292.23571944 C-146.30628759 291.03431319 -146.49835791 289.83290694 -146.69624853 288.59509444 C-149.44733991 269.67391919 -149.26518892 250.70441205 -149.24854279 231.6310482 C-149.24597618 227.75986596 -149.24836875 223.88868586 -149.24992895 220.0175035 C-149.25173935 213.51610039 -149.2493753 207.0147087 -149.24458838 200.51330733 C-149.23915945 193.05505311 -149.24090304 185.5968263 -149.24641478 178.13857275 C-149.25099211 171.68022353 -149.25157378 165.22188243 -149.24897611 158.7635321 C-149.24743701 154.93062602 -149.2471528 151.09773269 -149.2505126 147.26482749 C-149.31166662 66.04493939 -149.31166662 66.04493939 -121.11421728 35.23571944 C-120.39363134 34.44552413 -119.67304541 33.65532882 -118.93062353 32.84118819 C-87.39148667 -0.15965555 -42.53599592 -0.12422945 0 0 Z M-31.30708838 34.66198897 C-32.16033508 34.69809216 -33.01358179 34.73419536 -33.89268446 34.77139258 C-55.9159138 35.86820884 -79.4962788 40.40041313 -95.11421728 57.23571944 C-117.9679188 84.17947455 -115.271027 121.36173975 -115.31440592 154.53347945 C-115.31737838 156.69952803 -115.32148988 158.8655718 -115.32591009 161.03161788 C-115.33951519 167.86438693 -115.34921642 174.69714444 -115.35311198 181.52992606 C-115.35757988 189.31467174 -115.37509854 197.09924074 -115.40411258 204.88393283 C-115.42598656 210.9721644 -115.43582966 217.0603472 -115.4371531 223.14861751 C-115.43818273 226.75258118 -115.4436827 230.35637738 -115.46197271 233.9602983 C-116.24142918 268.27919919 -116.24142918 268.27919919 -108.11421728 301.23571944 C-107.84480322 301.86478194 -107.57538916 302.49384444 -107.29781103 303.14196944 C-99.81122844 320.25415823 -88.53246378 331.94436044 -71.11421728 339.23571944 C-48.45714385 347.55872601 -24.11511642 346.40592575 -0.34585428 346.43590808 C1.89171252 346.438873 4.12927458 346.44298363 6.36683893 346.44741225 C13.4201359 346.46103758 20.47342159 346.47072705 27.52673078 346.47461414 C35.57071658 346.47907601 43.61453088 346.49655756 51.65846467 346.52561474 C57.94112951 346.54749346 64.22374707 346.5573322 70.50644946 346.55865526 C74.22841814 346.55968529 77.95022472 346.56519359 81.67215204 346.58347487 C132.24639816 347.26241722 132.24639816 347.26241722 175.78812647 324.42712569 C182.2602522 317.66574294 186.41645301 309.86151864 189.88578272 301.23571944 C190.13312159 300.64830977 190.38046045 300.06090011 190.63529444 299.45569015 C192.72862203 294.26379757 193.74480503 289.20479693 194.51078272 283.67321944 C194.63195459 282.88109054 194.75312647 282.08896163 194.87797022 281.27282882 C197.3066437 264.52290141 197.04984337 247.66341691 197.05303979 230.78032494 C197.05375832 228.64109158 197.05590768 226.50186433 197.05853701 224.36263251 C197.06775402 216.84791202 197.07187712 209.33320908 197.07108545 201.81848311 C197.07048797 194.89943286 197.0809842 187.98046139 197.09682912 181.06143099 C197.11007634 175.05479218 197.11526219 169.04817854 197.11463004 163.0415253 C197.11437971 159.48390183 197.11696309 155.92634829 197.12780809 152.36873984 C197.16800549 138.16268293 196.97505242 124.02596217 195.98856592 109.84973311 C195.90994161 108.7111224 195.83131729 107.57251168 195.75031042 106.39939761 C195.0728697 97.66883925 193.63643895 89.5587383 190.88578272 81.23571944 C190.58800928 80.30243819 190.29023584 79.36915694 189.98343897 78.40759444 C187.67279595 71.94176076 184.07360304 66.63907236 179.88578272 61.23571944 C179.06593897 60.1664421 179.06593897 60.1664421 178.22953272 59.07556319 C165.86076516 43.93549158 146.26481822 37.82084136 127.49125147 35.63025069 C125.95669918 35.49187086 124.4214299 35.3613675 122.88578272 35.23571944 C121.91128672 35.15235839 120.93679071 35.06899734 119.93276453 34.98311019 C106.14529158 33.96246105 92.35217717 34.09086845 78.53422022 34.10290694 C75.78484038 34.10268307 73.03546132 34.1012607 70.28608179 34.10000777 C64.54212947 34.09819883 58.79819009 34.1005571 53.05423975 34.10534835 C46.47646187 34.11077285 39.8987151 34.10903631 33.32093799 34.10352194 C27.61500821 34.09893536 21.90908762 34.09836744 16.20315659 34.10096061 C12.8212581 34.10249531 9.43938539 34.10238599 6.05748606 34.09942412 C-6.40489688 34.0909061 -18.85457199 34.12144314 -31.30708838 34.66198897 Z " fill="#F9F9FA" transform="translate(215.11421728134155,65.76428055763245)"/>
<path d="M0 0 C1.20914063 0.3403125 2.41828125 0.680625 3.6640625 1.03125 C16.70606326 5.02755665 28.65390612 11.01674966 39 20 C39.80824219 20.66515625 40.61648438 21.3303125 41.44921875 22.015625 C60.28948233 38.05725831 71.59590079 61.54719462 74 86 C75.96031594 111.63579839 68.15198381 138.04413951 51.625 157.8125 C35.31532749 176.60670645 12.08360418 190.44567213 -13 193 C-16.95968022 193.22369894 -20.90941779 193.29603479 -24.875 193.3125 C-25.83760742 193.31797852 -26.80021484 193.32345703 -27.79199219 193.32910156 C-33.78868714 193.26898951 -39.21391202 192.54716405 -45 191 C-45.68755371 190.82847412 -46.37510742 190.65694824 -47.08349609 190.48022461 C-71.45304196 184.28227341 -93.33910099 169.3812814 -107 148 C-120.46677013 124.91082957 -126.21388156 98.70313397 -119.83447266 72.39599609 C-112.62980592 45.28003003 -95.58748781 23.02729982 -71.38671875 8.78125 C-49.48495323 -2.73801768 -24.01035287 -6.94005538 0 0 Z " fill="#F9F8F9" transform="translate(280,161)"/>
<path d="M0 0 C0.33 0 0.66 0 1 0 C1 14.85 1 29.7 1 45 C6.61 44.34 12.22 43.68 18 43 C21.38227755 42.92803665 24.64061531 42.8745458 28 43 C30.08597042 43 32.17196353 42.98735291 34.2578125 42.96484375 C35.53398437 42.95582031 36.81015625 42.94679688 38.125 42.9375 C39.38570312 42.92589844 40.64640625 42.91429687 41.9453125 42.90234375 C46.33429314 42.93634135 50.65055662 43.44329635 55 44 C55.01981934 43.16750732 55.03963867 42.33501465 55.06005859 41.47729492 C55.13820742 38.385235 55.22490206 35.29356617 55.31738281 32.2019043 C55.37444092 30.2070464 55.42164442 28.2119146 55.46875 26.21679688 C55.50742188 24.96318359 55.54609375 23.70957031 55.5859375 22.41796875 C55.6173584 21.26063232 55.6487793 20.1032959 55.68115234 18.91088867 C56 16 56 16 58 13 C57.97643433 14.10118164 57.97643433 14.10118164 57.95239258 15.22460938 C57.33990921 48.24185645 63.52091818 75.55130422 87 100 C100.32637502 112.57314513 116.24425988 120.80935465 134 125 C134.64130859 125.16991455 135.28261719 125.3398291 135.94335938 125.51489258 C142.03904345 127.03677808 147.85675676 127.3486932 154.125 127.3125 C155.6406958 127.30512817 155.6406958 127.30512817 157.18701172 127.29760742 C169.31964684 127.10903227 179.89693865 124.75349793 191.1484375 120.11328125 C193.50473949 119.19335513 195.59338323 118.58732433 198.0625 118.125 C206.3182922 116.27486475 213.88948655 110.38350975 220.37890625 105.1640625 C222 104 222 104 225 103 C226.5 104.375 226.5 104.375 228 106 C228 106.66 228 107.32 228 108 C228.721875 108.268125 229.44375 108.53625 230.1875 108.8125 C235.04754157 110.86451755 239.14672896 113.77470714 243.3515625 116.9140625 C245.12801293 118.18590344 245.12801293 118.18590344 248 119 C248.721875 119.7425 249.44375 120.485 250.1875 121.25 C253.08408743 124.08221882 255.92817499 125.90194034 259.42578125 127.88671875 C259.94527344 128.25410156 260.46476562 128.62148438 261 129 C261 129.66 261 130.32 261 131 C261.598125 131.268125 262.19625 131.53625 262.8125 131.8125 C264.98726664 132.99308761 266.26816512 134.26816512 268 136 C268.99 136.33 269.98 136.66 271 137 C271 137.99 271 138.98 271 140 C271.99 140 272.98 140 274 140 C276.1875 141.875 276.1875 141.875 278 144 C278 144.66 278 145.32 278 146 C278.556875 146.061875 279.11375 146.12375 279.6875 146.1875 C283.00086472 147.35165517 284.70475296 149.39458444 287 152 C287.33 152.99 287.66 153.98 288 155 C288.99 155.33 289.98 155.66 291 156 C290.49259538 160.39750672 287.91706686 162.86948922 285 166 C284.34 166 283.68 166 283 166 C282.67 166.99 282.34 167.98 282 169 C279.8203125 170.5 279.8203125 170.5 277.125 172 C273.62331195 173.88675213 273.62331195 173.88675213 270.65551758 176.46362305 C264.45832445 182.2148303 253.95181996 182.85171359 245.9375 183.6875 C244.92623047 183.80416016 243.91496094 183.92082031 242.87304688 184.04101562 C239.916777 184.37795044 236.95979411 184.69554707 234 185 C233.33313549 185.08099001 232.66627098 185.16198002 231.97919846 185.24542427 C224.80079143 186.06397003 217.68931238 186.14792865 210.4699707 186.14526367 C209.13637194 186.14826295 207.80277404 186.15166722 206.46917725 186.15544128 C202.8712277 186.16421527 199.27330201 186.16661682 195.6753428 186.16725707 C193.41473096 186.16797225 191.154125 186.17011551 188.89351463 186.17275429 C180.96961464 186.18199154 173.04573137 186.18609191 165.12182617 186.18530273 C157.79890812 186.18470496 150.47606445 186.19520166 143.15316516 186.2110464 C136.81974428 186.22424915 130.48634728 186.22948125 124.1529128 186.22884732 C120.39137253 186.22859569 116.62989821 186.23125591 112.86837196 186.24202538 C48.4674686 186.41321048 48.4674686 186.41321048 26 169 C25.28714844 168.4534375 24.57429688 167.906875 23.83984375 167.34375 C8.70535391 154.9795425 2.67286606 136.01623957 0.66818428 117.24987316 C-0.41822354 105.95403065 -0.24755224 94.63667602 -0.1953125 83.30078125 C-0.1915724 80.88413105 -0.18873016 78.4674793 -0.18673706 76.05082703 C-0.17917901 69.7562119 -0.15959979 63.46169223 -0.1373291 57.16711426 C-0.11669995 50.71754242 -0.10769921 44.26795484 -0.09765625 37.81835938 C-0.07634487 25.21219936 -0.04270234 12.60610481 0 0 Z " fill="#FF5A0E" transform="translate(101,226)"/>
<path d="M0 0 C1.10214844 0.45246094 2.20429688 0.90492188 3.33984375 1.37109375 C20.49769881 9.13963399 31.84400528 22.71864162 39 40 C42.88340688 52.60951018 43.19479213 69.80434107 38 82 C37.54753906 83.10214844 37.09507812 84.20429688 36.62890625 85.33984375 C28.48242742 103.33242648 14.26675492 114.36144053 -3.91796875 121.421875 C-15.99992524 124.7767147 -32.3836053 124.81571192 -44 120 C-45.10472656 119.54753906 -46.20945313 119.09507812 -47.34765625 118.62890625 C-64.89339719 110.6674547 -76.01262314 96.71040269 -83.08203125 78.98828125 C-85.24926388 72.95260101 -85.61740196 67.49546609 -85.5 61.125 C-85.48864014 60.0736084 -85.47728027 59.0222168 -85.46557617 57.93896484 C-85.2669731 49.98623388 -84.26588786 43.32156559 -81 36 C-80.62617188 35.11570313 -80.25234375 34.23140625 -79.8671875 33.3203125 C-77.06558913 27.2161677 -73.37189191 22.07519626 -69 17 C-68.48953125 16.39414063 -67.9790625 15.78828125 -67.453125 15.1640625 C-51.69328413 -2.07813964 -21.76250638 -9.26983096 0 0 Z " fill="#FF007A" transform="translate(278,196)"/>
<path d="M0 0 C1.4606285 2.64738916 2 3.89448334 2 7 C2.94875 7.268125 3.8975 7.53625 4.875 7.8125 C8.79679246 8.93187801 12.70057511 10.10841919 16.60546875 11.28515625 C18.50318259 11.8516842 20.40687729 12.39817282 22.3125 12.9375 C37.0625 17.1875 37.0625 17.1875 43.125 19.5625 C47.96101312 21.45124332 52.98041002 22.69896657 58 24 C58 24.66 58 25.32 58 26 C58.825 26.0825 59.65 26.165 60.5 26.25 C64.14460884 27.03098761 66.82801651 28.29160741 70.0703125 30.0625 C72.03359691 31.01632239 73.87080096 31.54577087 76 32 C76 32.66 76 33.32 76 34 C76.763125 33.938125 77.52625 33.87625 78.3125 33.8125 C81.55538884 34.03874806 81.87472615 34.69761999 84 37 C87.7775267 38.98817195 89.92615458 39.192345 94 38 C96.00744615 37.35610218 98.00945124 36.69437747 100 36 C92.73961111 44.47045371 80.86434089 48.77214311 70 50 C59.54859564 50.58245217 48.81404845 51.06852826 39 47 C37.34291016 46.32130859 37.34291016 46.32130859 35.65234375 45.62890625 C18.9543434 38.05212045 7.43563657 24.86087325 0.75 7.8125 C0.0177549 5.06658087 -0.16621401 2.82563816 0 0 Z " fill="#FF1C4D" transform="translate(195,269)"/>
<path d="M0 0 C5.77773554 3.35108661 11.06610255 7.20541665 13.125 13.8125 C14.16711338 23.08613821 13.19132206 29.34443072 7.9375 37 C2.66581293 42.27168707 -1.82645417 44.05179849 -9.3125 44.375 C-15.53464654 44.14455013 -20.14576901 42.96128212 -24.875 38.8125 C-31.26298013 30.97945883 -32.87321977 24.91076976 -31.875 14.8125 C-29.68063149 7.86024838 -25.06852414 3.44050577 -18.875 -0.1875 C-13.10075685 -2.11224772 -5.72421028 -2.27171574 0 0 Z " fill="#F9F7FA" transform="translate(366.875,133.1875)"/>
<path d="M0 0 C1.942806 4.67669469 -0.44420654 8.45524751 -2.24926758 12.85253906 C-5.68200697 20.95547997 -9.68138072 29.80059995 -16 36 C-16.45761719 36.77988281 -16.91523438 37.55976563 -17.38671875 38.36328125 C-22.1348451 46.12353619 -29.8656376 52.18664753 -37.1875 57.4375 C-37.74477783 57.83799561 -38.30205566 58.23849121 -38.8762207 58.65112305 C-62.34797962 74.95105113 -93.25316942 78.00088768 -121 77 C-121 76.67 -121 76.34 -121 76 C-115.79592271 75.15968157 -110.61683745 74.72218181 -105.359375 74.35449219 C-77.81768908 72.40029648 -51.13196041 67.20147136 -30 48 C-29.09636719 47.18917969 -28.19273437 46.37835938 -27.26171875 45.54296875 C-13.82075361 32.84562547 -6.55880733 17.09148028 0 0 Z " fill="#FF6C16" transform="translate(440,370)"/>
<path d="M0 0 C0.33 0 0.66 0 1 0 C1.07026616 8.78141154 1.12319247 17.56272273 1.15543652 26.34435654 C1.17093101 30.42433524 1.19186248 34.50411825 1.22631836 38.58398438 C1.60691012 84.90341975 1.60691012 84.90341975 -7 103 C-7.44214844 103.95132813 -7.88429688 104.90265625 -8.33984375 105.8828125 C-14.55281361 118.23991044 -24.93775126 128.90253708 -38 134 C-38.99 133.67 -39.98 133.34 -41 133 C-40.29875 132.64808594 -39.5975 132.29617188 -38.875 131.93359375 C-31.40772245 128.04776861 -24.28333353 123.94134523 -19.75 116.625 C-17.7386169 113.60792535 -17.28240057 113.76589347 -14 113 C-13.28384238 111.35399256 -12.62560889 109.68250876 -12 108 C-11.20968116 106.39516888 -10.4179323 104.79104144 -9.625 103.1875 C-4.76514196 92.36392236 -2.83392555 81.53200872 -1.92578125 69.79296875 C-1.84135773 68.71580093 -1.7569342 67.63863312 -1.66995239 66.52882385 C-0.69910552 53.17911255 -0.54220734 39.81669988 -0.375 26.4375 C-0.33667769 23.85350454 -0.29761864 21.2695199 -0.2578125 18.68554688 C-0.16342516 12.45712967 -0.07796545 6.22864334 0 0 Z " fill="#FF0A49" transform="translate(410,269)"/>
<path d="M0 0 C1.942806 4.67669469 -0.44420654 8.45524751 -2.24926758 12.85253906 C-5.68200697 20.95547997 -9.68138072 29.80059995 -16 36 C-16.45375 36.77730469 -16.9075 37.55460937 -17.375 38.35546875 C-22.5654834 46.8024814 -32.36865195 55.27608654 -41 60 C-41.99 59.67 -42.98 59.34 -44 59 C-42.80117188 58.12601562 -42.80117188 58.12601562 -41.578125 57.234375 C-20.61469265 41.70161696 -9.34422807 24.34995904 0 0 Z " fill="#FF1139" transform="translate(440,370)"/>
<path d="M0 0 C0.66 0.99 1.32 1.98 2 3 C1.03069273 5.81007374 -0.00793065 8.28614783 -1.3125 10.9375 C-1.67988281 11.69949707 -2.04726563 12.46149414 -2.42578125 13.24658203 C-5.33754777 19.08855954 -8.69219111 24.12143002 -12.78125 29.21875 C-15.01293014 32.0162082 -16.99371379 34.91333941 -19 37.875 C-22.71082454 42.98378803 -26.58609443 45.87659294 -32 49 C-33.940903 50.24470953 -35.87833292 51.49484902 -37.8125 52.75 C-46.21179625 58.13136729 -46.21179625 58.13136729 -49.25 57.625 C-49.8275 57.41875 -50.405 57.2125 -51 57 C-50.29617188 56.69449219 -49.59234375 56.38898438 -48.8671875 56.07421875 C-26.89871995 45.8930099 -11.79006062 27.9139747 -2 6 C-1.30696823 4.00898232 -0.63270786 2.01100105 0 0 Z " fill="#FF1549" transform="translate(348,287)"/>
<path d="M0 0 C0.33 0 0.66 0 1 0 C0.98428955 0.73412109 0.9685791 1.46824219 0.95239258 2.22460938 C0.50748323 26.20841472 3.02508141 45.45585636 14 67 C13.01 67 12.02 67 11 67 C2.10031085 47.12690773 -7.32167805 21.96503416 0 0 Z " fill="#FF1632" transform="translate(158,239)"/>
<path d="M0 0 C1.8540319 4.84812068 -0.50200602 8.41673818 -2.48046875 12.90234375 C-8.88879381 25.96610153 -19.18324734 37.60809652 -33 43 C-33.99 42.67 -34.98 42.34 -36 42 C-35.29875 41.64808594 -34.5975 41.29617188 -33.875 40.93359375 C-26.40772245 37.04776861 -19.28333353 32.94134523 -14.75 25.625 C-12.7386169 22.60792535 -12.28240057 22.76589347 -9 22 C-8.2780457 20.35652679 -7.62207712 18.68381777 -7 17 C-6.17510477 15.18364416 -5.3415042 13.37122092 -4.5 11.5625 C-2.75875553 7.76155337 -1.19373656 4.0152957 0 0 Z " fill="#FF0F19" transform="translate(405,360)"/>
<path d="M0 0 C0.66 0.33 1.32 0.66 2 1 C-0.86720436 4.04640463 -3.83935407 6.78043089 -7.125 9.375 C-7.78757812 9.89835937 -8.45015625 10.42171875 -9.1328125 10.9609375 C-9.74898438 11.30382812 -10.36515625 11.64671875 -11 12 C-11.99 11.67 -12.98 11.34 -14 11 C-13.07316406 10.28972656 -12.14632813 9.57945312 -11.19140625 8.84765625 C-9.98174158 7.91930895 -8.77210776 6.99092145 -7.5625 6.0625 C-6.95083984 5.59392578 -6.33917969 5.12535156 -5.70898438 4.64257812 C-2.75031115 2.44328176 -2.75031115 2.44328176 0 0 Z " fill="#FF1C14" transform="translate(410,418)"/>
<path d="M0 0 C-1.46966358 3.39859703 -3.38037514 5.64963709 -6 8.25 C-6.70125 8.95640625 -7.4025 9.6628125 -8.125 10.390625 C-10 12 -10 12 -12 12 C-10.53033642 8.60140297 -8.61962486 6.35036291 -6 3.75 C-5.29875 3.04359375 -4.5975 2.3371875 -3.875 1.609375 C-2 0 -2 0 0 0 Z " fill="#FF0983" transform="translate(218,206)"/>
<path d="M0 0 C0.66 0.66 1.32 1.32 2 2 C0.59248779 2.86916887 -0.8264521 3.71985149 -2.25 4.5625 C-3.03890625 5.03816406 -3.8278125 5.51382812 -4.640625 6.00390625 C-7 7 -7 7 -11 6 C-7.37 4.02 -3.74 2.04 0 0 Z " fill="#FF3A16" transform="translate(395,429)"/>
<path d="M0 0 C1.79275866 3.11910856 2.34290718 5.67682428 2.625 9.25 C2.69976562 10.14203125 2.77453125 11.0340625 2.8515625 11.953125 C2.92503906 12.96632813 2.92503906 12.96632813 3 14 C2.34 14 1.68 14 1 14 C0.63794536 12.04310963 0.28558579 10.08442332 -0.0625 8.125 C-0.25972656 7.03445313 -0.45695313 5.94390625 -0.66015625 4.8203125 C-1 2 -1 2 0 0 Z " fill="#FF1E44" transform="translate(158,266)"/>
<path d="M0 0 C0.99 0.33 1.98 0.66 3 1 C0.69 3.31 -1.62 5.62 -4 8 C-4.66 7.34 -5.32 6.68 -6 6 C-4.02 4.02 -2.04 2.04 0 0 Z " fill="#FF202C" transform="translate(417,411)"/>
<path d="M0 0 C0.66 0.33 1.32 0.66 2 1 C0.73058503 4.91402949 -0.51167694 6.79072873 -4 9 C-4 5.00095031 -2.27413033 3.19799578 0 0 Z " fill="#FF2332" transform="translate(392,383)"/>
<path d="M0 0 C0 3.97054597 -1.3139381 5.16471244 -4 8 C-6.140625 8.6484375 -6.140625 8.6484375 -8 9 C-7.04270084 7.87411986 -6.08412105 6.7493285 -5.125 5.625 C-4.59132813 4.99851562 -4.05765625 4.37203125 -3.5078125 3.7265625 C-2.38567993 2.44163349 -1.20628025 1.20628025 0 0 Z " fill="#FF0139" transform="translate(330,320)"/>
</svg>
